<svg width="24" height="25" viewBox="0 0 24 25" fill="none" xmlns="http://www.w3.org/2000/svg">
<path d="M12 2.52393C6.5 2.52393 2 7.02393 2 12.5239C2 18.0239 6.5 22.5239 12 22.5239C17.5 22.5239 22 18.0239 22 12.5239C22 7.02393 17.5 2.52393 12 2.52393ZM15 13.5239H11.4L12.7 14.8239C13.1 15.2239 13.1 15.8239 12.7 16.2239C12.3 16.6239 11.7 16.6239 11.3 16.2239L8.3 13.2239C7.9 12.8239 7.9 12.2239 8.3 11.8239L11.3 8.82393C11.7 8.42393 12.3 8.42393 12.7 8.82393C13.1 9.22393 13.1 9.82393 12.7 10.2239L11.4 11.5239H15C15.6 11.5239 16 11.9239 16 12.5239C16 13.1239 15.6 13.5239 15 13.5239Z" fill="#377E4C"/>
</svg>
