<svg width="24" height="25" viewBox="0 0 24 25" fill="none" xmlns="http://www.w3.org/2000/svg">
<path d="M12 2.52393C6.5 2.52393 2 7.02393 2 12.5239C2 18.0239 6.5 22.5239 12 22.5239C17.5 22.5239 22 18.0239 22 12.5239C22 7.02393 17.5 2.52393 12 2.52393ZM15.7 13.2239L12.7 16.2239C12.3 16.6239 11.7 16.6239 11.3 16.2239C10.9 15.8239 10.9 15.2239 11.3 14.8239L12.6 13.5239H9C8.4 13.5239 8 13.1239 8 12.5239C8 11.9239 8.4 11.5239 9 11.5239H12.6L11.3 10.2239C10.9 9.82393 10.9 9.22393 11.3 8.82393C11.7 8.42393 12.3 8.42393 12.7 8.82393L15.7 11.8239C16.1 12.2239 16.1 12.8239 15.7 13.2239Z" fill="#377E4C"/>
</svg>
