<svg width="29" height="29" viewBox="0 0 29 29" fill="none" xmlns="http://www.w3.org/2000/svg">
<path d="M27.4705 28.3055C27.9365 27.8433 27.9365 27.0898 27.4705 26.6276L24.6465 23.9217C24.4572 23.7287 24.4232 23.4319 24.5638 23.201C25.1622 22.1971 25.4767 21.0494 25.4736 19.8807C25.4736 14.8507 20.0285 11.7069 15.6723 14.222C11.3163 16.737 11.3163 23.0244 15.6723 25.5395C16.6658 26.1131 17.7923 26.4149 18.9394 26.4149C20.1082 26.4179 21.2558 26.1035 22.2597 25.505C22.4906 25.3645 22.7875 25.3986 22.9804 25.5878L25.7453 28.3644C26.2291 28.8476 27.0208 28.8206 27.4705 28.3055ZM18.9866 23.9927C15.7759 23.9928 13.7691 20.517 15.3745 17.7363C16.9797 14.9555 20.9932 14.9554 22.5988 17.7359C22.965 18.3701 23.1577 19.0894 23.1577 19.8216C23.1512 22.141 21.2588 24.0122 18.9394 23.9927H18.9866Z" fill="white"/>
<path d="M18.3133 28.2936C18.3084 28.1479 18.198 28.0274 18.0532 28.01C11.6862 27.6825 8.06115 20.5853 11.5283 15.235C13.1375 12.7519 15.949 11.3158 18.904 11.4678C20.6449 11.4633 22.3417 12.0138 23.7485 13.0393C23.8428 13.0967 23.9614 13.0967 24.0557 13.0393C24.1572 12.9928 24.222 12.891 24.2212 12.7793V7.37951C24.2441 6.2386 23.4487 5.24427 22.3306 5.01637C22.0555 4.96019 21.8579 4.71816 21.8579 4.43734V2.65312C21.8579 1.34799 20.8 0.289978 19.4948 0.289978H4.72494C2.7672 0.289978 1.18018 1.877 1.18018 3.83474V25.1032C1.18018 27.0611 2.7672 28.6481 4.72494 28.648H18.0178C18.1809 28.648 18.3133 28.5158 18.3133 28.3527V28.2936ZM3.54343 3.83474C3.54343 3.18212 4.07244 2.65312 4.72494 2.65312H19.1994C19.3626 2.65312 19.4948 2.78543 19.4948 2.94855V4.72094C19.4948 4.88406 19.3626 5.01637 19.1994 5.01637H4.72494C4.07232 5.01637 3.54343 4.48737 3.54343 3.83474Z" fill="white"/>
</svg>
