<svg width="25" height="25" viewBox="0 0 25 25" fill="none" xmlns="http://www.w3.org/2000/svg">
<g clip-path="url(#clip0_68_550)">
<path d="M20.9896 4.16667C20.8719 4.14265 20.7662 4.07873 20.6903 3.98572C20.6144 3.89271 20.5729 3.77632 20.5729 3.65625V2.08333C20.5729 1.5308 20.3534 1.0009 19.9627 0.610194C19.572 0.219493 19.0421 0 18.4896 0L5.46875 0C4.63995 0 3.84509 0.32924 3.25904 0.915291C2.67299 1.50134 2.34375 2.2962 2.34375 3.125V21.875C2.34375 22.7038 2.67299 23.4987 3.25904 24.0847C3.84509 24.6708 4.63995 25 5.46875 25H20.5729C21.1255 25 21.6554 24.7805 22.0461 24.3898C22.4368 23.9991 22.6562 23.4692 22.6562 22.9167V6.25C22.6661 5.76261 22.5047 5.28721 22.2001 4.90655C21.8956 4.52588 21.4672 4.26406 20.9896 4.16667ZM17.9687 13.8021C17.9656 13.8525 17.9484 13.901 17.9191 13.9422C17.8898 13.9833 17.8496 14.0154 17.803 14.035C17.7564 14.0545 17.7053 14.0605 17.6555 14.0525C17.6056 14.0445 17.559 14.0227 17.5208 13.9896L15.5521 12.0104C15.5005 11.9643 15.4338 11.9388 15.3646 11.9388C15.2954 11.9388 15.2286 11.9643 15.1771 12.0104L13.2083 13.9896C13.1648 14.0174 13.1142 14.0322 13.0625 14.0322C13.0108 14.0322 12.9602 14.0174 12.9167 13.9896C12.8701 13.9693 12.8305 13.9357 12.8027 13.8932C12.7749 13.8506 12.7602 13.8008 12.7604 13.75V5.98958C12.7604 5.92052 12.7879 5.85428 12.8367 5.80544C12.8855 5.7566 12.9518 5.72917 13.0208 5.72917H17.7083C17.7774 5.72917 17.8436 5.7566 17.8925 5.80544C17.9413 5.85428 17.9687 5.92052 17.9687 5.98958V13.8021ZM18.4896 3.86458C18.4957 3.9021 18.4935 3.9405 18.4831 3.97707C18.4728 4.01365 18.4546 4.04752 18.4298 4.07631C18.405 4.1051 18.3741 4.1281 18.3395 4.14371C18.3048 4.15932 18.2672 4.16716 18.2292 4.16667H5.46875C5.19248 4.16667 4.92753 4.05692 4.73218 3.86157C4.53683 3.66622 4.42708 3.40127 4.42708 3.125C4.42708 2.84873 4.53683 2.58378 4.73218 2.38843C4.92753 2.19308 5.19248 2.08333 5.46875 2.08333H18.2292C18.2982 2.08333 18.3645 2.11077 18.4133 2.15961C18.4621 2.20845 18.4896 2.27468 18.4896 2.34375V3.86458Z" fill="white"/>
</g>
<defs>
<clipPath id="clip0_68_550">
<rect width="25" height="25" fill="white"/>
</clipPath>
</defs>
</svg>
