<svg width="26" height="26" viewBox="0 0 26 26" fill="none" xmlns="http://www.w3.org/2000/svg">
<g clip-path="url(#clip0_68_542)">
<path d="M26 19.5C26 19.3564 25.9429 19.2186 25.8414 19.117C25.7398 19.0154 25.602 18.9584 25.4583 18.9584H0.541667C0.398008 18.9584 0.260233 19.0154 0.158651 19.117C0.0570683 19.2186 0 19.3564 0 19.5L0 20.5834C0 21.3017 0.285341 21.9905 0.793252 22.4985C1.30116 23.0064 1.99004 23.2917 2.70833 23.2917V24.9167C2.70833 25.204 2.82247 25.4796 3.02563 25.6827C3.2288 25.8859 3.50435 26 3.79167 26C4.07898 26 4.35453 25.8859 4.5577 25.6827C4.76086 25.4796 4.875 25.204 4.875 24.9167V23.5625C4.875 23.4907 4.90353 23.4218 4.95433 23.371C5.00512 23.3202 5.074 23.2917 5.14583 23.2917H20.8542C20.926 23.2917 20.9949 23.3202 21.0457 23.371C21.0965 23.4218 21.125 23.4907 21.125 23.5625V24.9167C21.125 25.204 21.2391 25.4796 21.4423 25.6827C21.6455 25.8859 21.921 26 22.2083 26C22.4957 26 22.7712 25.8859 22.9744 25.6827C23.1775 25.4796 23.2917 25.204 23.2917 24.9167V23.2917C23.6473 23.2917 23.9995 23.2217 24.3281 23.0855C24.6567 22.9494 24.9553 22.7499 25.2067 22.4985C25.4582 22.247 25.6577 21.9484 25.7938 21.6198C25.9299 21.2912 26 20.939 26 20.5834V19.5Z" fill="white"/>
<path d="M10.0209 17.875H14.3542C14.4979 17.875 14.6357 17.8179 14.7373 17.7164C14.8388 17.6148 14.8959 17.477 14.8959 17.3333V1.08333C14.8959 0.796016 14.7818 0.520465 14.5786 0.317301C14.3754 0.114137 14.0999 0 13.8126 0L10.5626 0C10.2753 0 9.99971 0.114137 9.79655 0.317301C9.59338 0.520465 9.47925 0.796016 9.47925 1.08333V17.3333C9.47925 17.477 9.53632 17.6148 9.6379 17.7164C9.73948 17.8179 9.87726 17.875 10.0209 17.875Z" fill="white"/>
<path d="M2.43742 17.875H6.77075C6.91441 17.875 7.05219 17.8179 7.15377 17.7164C7.25535 17.6148 7.31242 17.477 7.31242 17.3333V1.08333C7.31242 0.796016 7.19828 0.520465 6.99512 0.317301C6.79195 0.114137 6.5164 0 6.22908 0L2.97909 0C2.69177 0 2.41622 0.114137 2.21305 0.317301C2.00989 0.520465 1.89575 0.796016 1.89575 1.08333V17.3333C1.89575 17.477 1.95282 17.6148 2.0544 17.7164C2.15598 17.8179 2.29376 17.875 2.43742 17.875Z" fill="white"/>
<path d="M19.8032 17.8642L23.9632 17.0842C24.1009 17.0579 24.2226 16.9782 24.3018 16.8625C24.3809 16.7468 24.4111 16.6045 24.3857 16.4667L21.4716 0.866682C21.4188 0.590024 21.2603 0.344806 21.0297 0.183018C20.7992 0.0212293 20.5147 -0.0444101 20.2366 1.5486e-05L17.1166 0.595849C16.8399 0.648654 16.5947 0.807129 16.4329 1.03768C16.2711 1.26823 16.2055 1.55272 16.2499 1.83085L19.1857 17.4417C19.1974 17.5105 19.2228 17.5763 19.2604 17.6351C19.2981 17.6939 19.3472 17.7446 19.4048 17.784C19.4624 17.8234 19.5274 17.8509 19.5959 17.8646C19.6643 17.8784 19.7348 17.8783 19.8032 17.8642Z" fill="white"/>
</g>
<defs>
<clipPath id="clip0_68_542">
<rect width="26" height="26" fill="white"/>
</clipPath>
</defs>
</svg>
