<svg width="65" height="68" viewBox="0 0 65 68" fill="none" xmlns="http://www.w3.org/2000/svg">
<path d="M30.75 49.7292C30.75 55.3438 33.1075 60.4129 36.9683 64.1667H6.83333C3.04083 64.1667 0 61.3112 0 57.75V6.41667C0 4.71486 0.719938 3.08276 2.00144 1.8794C3.28294 0.676039 5.02102 0 6.83333 0H10.25V22.4583L18.7917 17.6458L27.3333 22.4583V0H47.8333C49.6456 0 51.3837 0.676039 52.6652 1.8794C53.9467 3.08276 54.6667 4.71486 54.6667 6.41667V28.9712C54.12 28.875 53.5392 28.875 52.9583 28.875C47.0683 28.875 41.4195 31.0721 37.2547 34.983C33.0898 38.894 30.75 44.1983 30.75 49.7292ZM51.25 57.75C48.9846 57.75 46.812 56.9049 45.2101 55.4007C43.6083 53.8966 42.7083 51.8564 42.7083 49.7292C42.7083 48.4458 43.0158 47.2267 43.5967 46.1358L39.8725 42.6387C38.4375 44.66 37.5833 47.0983 37.5833 49.7292C37.5833 56.8196 43.6992 62.5625 51.25 62.5625V67.375L58.9375 60.1562L51.25 52.9375V57.75ZM51.25 36.8958V32.0833L43.5625 39.3021L51.25 46.5208V41.7083C53.5154 41.7083 55.688 42.5534 57.2899 44.0576C58.8917 45.5618 59.7917 47.6019 59.7917 49.7292C59.7917 51.0125 59.4842 52.2317 58.9033 53.3225L62.6275 56.8196C64.0625 54.7983 64.9167 52.36 64.9167 49.7292C64.9167 42.6387 58.8008 36.8958 51.25 36.8958Z" fill="#377E4C"/>
</svg>
