<svg width="22" height="21" viewBox="0 0 22 21" fill="none" xmlns="http://www.w3.org/2000/svg">
<path d="M8.97959 18.7681C8.97959 18.8097 8.98427 18.9139 8.99362 19.0806C9.00298 19.2472 9.00531 19.3853 9.00064 19.4946C8.99596 19.604 8.98193 19.7264 8.95855 19.8618C8.93516 19.9972 8.88839 20.0988 8.81824 20.1665C8.74809 20.2342 8.65221 20.2681 8.53061 20.2681H4.04082C2.92772 20.2681 1.97598 19.828 1.18559 18.9478C0.395196 18.0675 0 17.0077 0 15.7681V4.76807C0 3.52848 0.395196 2.46859 1.18559 1.58838C1.97598 0.708171 2.92772 0.268066 4.04082 0.268066H8.53061C8.65221 0.268066 8.75744 0.317546 8.8463 0.416504C8.93516 0.515462 8.97959 0.63265 8.97959 0.768066C8.97959 0.809733 8.98427 0.9139 8.99362 1.08057C9.00298 1.24723 9.00531 1.38525 9.00064 1.49463C8.99596 1.604 8.98193 1.7264 8.95855 1.86182C8.93516 1.99723 8.88839 2.0988 8.81824 2.1665C8.74809 2.23421 8.65221 2.26807 8.53061 2.26807H4.04082C3.42347 2.26807 2.89498 2.51286 2.45536 3.00244C2.01573 3.49202 1.79592 4.08057 1.79592 4.76807V15.7681C1.79592 16.4556 2.01573 17.0441 2.45536 17.5337C2.89498 18.0233 3.42347 18.2681 4.04082 18.2681H8.41837L8.57972 18.2837L8.74107 18.3306L8.85332 18.4165L8.95153 18.5571L8.97959 18.7681ZM22 10.2681C22 10.5389 21.9111 10.7733 21.7334 10.9712L14.1008 19.4712C13.923 19.6691 13.7126 19.7681 13.4694 19.7681C13.2262 19.7681 13.0157 19.6691 12.838 19.4712C12.6603 19.2733 12.5714 19.0389 12.5714 18.7681V14.2681H6.28571C6.04252 14.2681 5.83206 14.1691 5.65434 13.9712C5.47662 13.7733 5.38775 13.5389 5.38775 13.2681V7.26807C5.38775 6.99723 5.47662 6.76286 5.65434 6.56494C5.83206 6.36702 6.04252 6.26807 6.28571 6.26807H12.5714V1.76807C12.5714 1.49723 12.6603 1.26286 12.838 1.06494C13.0157 0.867025 13.2262 0.768066 13.4694 0.768066C13.7126 0.768066 13.923 0.867025 14.1008 1.06494L21.7334 9.56494C21.9111 9.76286 22 9.99723 22 10.2681Z" fill="#292D32" fill-opacity="0.86"/>
</svg>
