<svg width="32" height="26" viewBox="0 0 32 26" fill="none" xmlns="http://www.w3.org/2000/svg">
<path d="M16.347 5.14347C16.254 5.07113 16.1302 5.03076 16.0013 5.03076C15.8726 5.03076 15.7488 5.07113 15.6557 5.14347L4.14966 14.0743C4.10079 14.1122 4.06191 14.1578 4.03539 14.2084C4.00885 14.2589 3.99521 14.3133 3.99529 14.3683L3.99341 22.7501C3.99341 23.1811 4.20412 23.5944 4.57919 23.8991C4.95425 24.2039 5.46296 24.3751 5.99338 24.3751H11.9995C12.2648 24.3751 12.5191 24.2894 12.7067 24.1371C12.8942 23.9847 12.9995 23.7781 12.9995 23.5626V16.6564C12.9995 16.5487 13.0522 16.4454 13.146 16.3691C13.2398 16.2929 13.3669 16.2502 13.4995 16.2502H18.4995C18.6321 16.2502 18.7593 16.2929 18.853 16.3691C18.9468 16.4454 18.9995 16.5487 18.9995 16.6564V23.5626C18.9995 23.7781 19.1048 23.9847 19.2924 24.1371C19.4799 24.2894 19.7343 24.3751 19.9995 24.3751H26.0031C26.5335 24.3751 27.0423 24.2039 27.4173 23.8991C27.7924 23.5944 28.0031 23.1811 28.0031 22.7501V14.3683C28.0032 14.3133 27.9895 14.2589 27.963 14.2084C27.9365 14.1578 27.8976 14.1122 27.8487 14.0743L16.347 5.14347Z" fill="white"/>
<path d="M30.6807 12.3987L26.0058 8.76478V3.25053C26.0058 3.03504 25.9005 2.82838 25.7129 2.67601C25.5254 2.52364 25.2711 2.43804 25.0058 2.43804H22.0058C21.7407 2.43804 21.4863 2.52364 21.2988 2.67601C21.1112 2.82838 21.0058 3.03504 21.0058 3.25053V4.87551L17.3859 2.06328C17.0472 1.785 16.5434 1.62555 15.999 1.62555C15.4566 1.62555 14.954 1.785 14.6153 2.06378L1.32178 12.3976C0.933045 12.7023 0.884291 13.2035 1.23804 13.5336C1.32686 13.6169 1.43564 13.6847 1.55772 13.7327C1.6798 13.7808 1.81265 13.8082 1.94818 13.8132C2.0837 13.8183 2.21907 13.8009 2.34604 13.762C2.47302 13.7232 2.58895 13.6638 2.68677 13.5874L15.6553 3.51865C15.7484 3.44632 15.8722 3.40596 16.0009 3.40596C16.1297 3.40596 16.2536 3.44632 16.3466 3.51865L29.3164 13.5874C29.5075 13.7363 29.7634 13.8175 30.028 13.8133C30.2927 13.8091 30.5445 13.7198 30.7282 13.5651C31.112 13.2421 31.0801 12.7089 30.6807 12.3987Z" fill="white"/>
</svg>
