<svg width="94" height="78" viewBox="0 0 94 78" fill="none" xmlns="http://www.w3.org/2000/svg">
<path d="M18.3516 68.25H8.17969C7.6016 68.25 7.04719 68.0574 6.63842 67.7146C6.22965 67.3717 6 66.9067 6 66.4219V9.14062C6 8.65578 6.22965 8.19079 6.63842 7.84795C7.04719 7.50511 7.6016 7.3125 8.17969 7.3125H18.3516C18.9297 7.3125 19.4841 7.50511 19.8928 7.84795C20.3016 8.19079 20.5312 8.65578 20.5312 9.14062V66.4219C20.5312 66.9067 20.3016 67.3717 19.8928 67.7146C19.4841 68.0574 18.9297 68.25 18.3516 68.25ZM46.6875 26.8125V18.8906C46.6875 18.4058 46.4579 17.9408 46.0491 17.5979C45.6403 17.2551 45.0859 17.0625 44.5078 17.0625H25.6172C25.0391 17.0625 24.4847 17.2551 24.0759 17.5979C23.6671 17.9408 23.4375 18.4058 23.4375 18.8906V26.8125H46.6875ZM23.4375 58.5V66.4219C23.4375 66.9067 23.6671 67.3717 24.0759 67.7146C24.4847 68.0574 25.0391 68.25 25.6172 68.25H44.5078C45.0859 68.25 45.6403 68.0574 46.0491 67.7146C46.4579 67.3717 46.6875 66.9067 46.6875 66.4219V58.5H23.4375ZM23.4375 31.6875H46.6875V53.625H23.4375V31.6875ZM64.8516 68.25H51.7734C51.1953 68.25 50.6409 68.0574 50.2322 67.7146C49.8234 67.3717 49.5938 66.9067 49.5938 66.4219V1.82812C49.5938 1.34328 49.8234 0.878285 50.2322 0.535445C50.6409 0.192605 51.1953 0 51.7734 0H64.8516C65.4297 0 65.9841 0.192605 66.3928 0.535445C66.8016 0.878285 67.0312 1.34328 67.0312 1.82812V66.4219C67.0312 66.9067 66.8016 67.3717 66.3928 67.7146C65.9841 68.0574 65.4297 68.25 64.8516 68.25ZM70.1191 10.466L75.5684 66.5026C75.5925 66.7483 75.6757 66.9874 75.813 67.2055C75.9502 67.4236 76.1386 67.6161 76.3668 67.7715C76.595 67.9269 76.8584 68.042 77.141 68.1098C77.4236 68.1777 77.7197 68.1968 78.0114 68.1662L91.1186 66.7951C91.6767 66.7366 92.1862 66.4994 92.5406 66.1332C92.895 65.7669 93.0669 65.3 93.0204 64.8299L87.5566 9.02027C87.5326 8.77787 87.4511 8.54194 87.3169 8.32629C87.1828 8.11064 86.9987 7.91962 86.7754 7.7644C86.5521 7.60919 86.2941 7.49291 86.0165 7.42238C85.739 7.35184 85.4474 7.32847 85.159 7.35363L72.0573 8.49773C71.4919 8.54897 70.9728 8.78346 70.6108 9.15118C70.2487 9.5189 70.0723 9.99073 70.1191 10.466Z" fill="#377E4C"/>
</svg>
