<svg width="24" height="24" viewBox="0 0 24 24" fill="none" xmlns="http://www.w3.org/2000/svg">
<g clip-path="url(#clip0_68_548)">
<path fill-rule="evenodd" clip-rule="evenodd" d="M10.108 0.798975C7.3699 -0.13649 4.39829 -0.133675 1.66198 0.806975C1.22532 0.947715 0.844476 1.22317 0.574091 1.5938C0.303706 1.96443 0.157685 2.4112 0.156982 2.86998V15.548C0.156982 16.318 0.475982 16.961 1.02998 17.352C1.56698 17.731 2.24298 17.814 2.86698 17.654L2.88298 17.649C5.26541 16.9817 7.80077 17.1123 10.102 18.021L10.106 18.023V0.849975L10.108 0.798975ZM11.606 18.022L11.612 18.02C11.972 17.878 12.337 17.755 12.706 17.651C12.7279 17.1356 12.9481 16.6486 13.3206 16.2917C13.6931 15.9349 14.1891 15.7358 14.705 15.736H15.829V14.612C15.829 14.0815 16.0397 13.5728 16.4148 13.1978C16.7898 12.8227 17.2985 12.612 17.829 12.612H20.376C20.817 12.612 21.225 12.755 21.556 12.996V2.86998C21.555 2.41124 21.4087 1.96361 21.1382 1.59316C20.8676 1.22271 20.4867 0.947489 20.05 0.806975C17.3139 -0.133275 14.3426 -0.135737 11.605 0.799975C11.6059 0.816627 11.6062 0.833302 11.606 0.849975V18.023V18.022ZM17.829 14.112H20.376C20.5086 14.112 20.6358 14.1647 20.7295 14.2584C20.8233 14.3522 20.876 14.4794 20.876 14.612V17.236H23.5C23.6326 17.236 23.7598 17.2887 23.8535 17.3824C23.9473 17.4762 24 17.6034 24 17.736V20.284C24 20.4166 23.9473 20.5438 23.8535 20.6375C23.7598 20.7313 23.6326 20.784 23.5 20.784H20.877V23.408C20.877 23.5406 20.8243 23.6678 20.7305 23.7615C20.6368 23.8553 20.5096 23.908 20.377 23.908H17.829C17.6964 23.908 17.5692 23.8553 17.4754 23.7615C17.3817 23.6678 17.329 23.5406 17.329 23.408V20.784H14.705C14.5724 20.784 14.4452 20.7313 14.3514 20.6375C14.2577 20.5438 14.205 20.4166 14.205 20.284V17.736C14.205 17.6034 14.2577 17.4762 14.3514 17.3824C14.4452 17.2887 14.5724 17.236 14.705 17.236H17.329V14.612C17.329 14.4794 17.3817 14.3522 17.4754 14.2584C17.5692 14.1647 17.6964 14.112 17.829 14.112Z" fill="white"/>
</g>
<defs>
<clipPath id="clip0_68_548">
<rect width="24" height="24" fill="white"/>
</clipPath>
</defs>
</svg>
