<svg width="46" height="35" viewBox="0 0 46 35" fill="none" xmlns="http://www.w3.org/2000/svg">
<path d="M0.333496 3.25C0.333496 2.62011 0.632008 2.01602 1.16336 1.57062C1.69471 1.12522 2.41538 0.875 3.16683 0.875H42.8335C43.5849 0.875 44.3056 1.12522 44.837 1.57062C45.3683 2.01602 45.6668 2.62011 45.6668 3.25C45.6668 3.87989 45.3683 4.48398 44.837 4.92938C44.3056 5.37478 43.5849 5.625 42.8335 5.625H3.16683C2.41538 5.625 1.69471 5.37478 1.16336 4.92938C0.632008 4.48398 0.333496 3.87989 0.333496 3.25ZM0.333496 17.5C0.333496 16.8701 0.632008 16.266 1.16336 15.8206C1.69471 15.3752 2.41538 15.125 3.16683 15.125H42.8335C43.5849 15.125 44.3056 15.3752 44.837 15.8206C45.3683 16.266 45.6668 16.8701 45.6668 17.5C45.6668 18.1299 45.3683 18.734 44.837 19.1794C44.3056 19.6248 43.5849 19.875 42.8335 19.875H3.16683C2.41538 19.875 1.69471 19.6248 1.16336 19.1794C0.632008 18.734 0.333496 18.1299 0.333496 17.5ZM3.16683 29.375C2.41538 29.375 1.69471 29.6252 1.16336 30.0706C0.632008 30.516 0.333496 31.1201 0.333496 31.75C0.333496 32.3799 0.632008 32.984 1.16336 33.4294C1.69471 33.8748 2.41538 34.125 3.16683 34.125H42.8335C43.5849 34.125 44.3056 33.8748 44.837 33.4294C45.3683 32.984 45.6668 32.3799 45.6668 31.75C45.6668 31.1201 45.3683 30.516 44.837 30.0706C44.3056 29.6252 43.5849 29.375 42.8335 29.375H3.16683Z" fill="white"/>
</svg>
