<svg width="79" height="76" viewBox="0 0 79 76" fill="none" xmlns="http://www.w3.org/2000/svg">
<path d="M69.1251 25.3334C70.8711 25.3334 72.5456 26.0006 73.7802 27.1884C75.0148 28.3761 75.7084 29.987 75.7084 31.6667V44.3334C75.7084 46.0131 75.0148 47.624 73.7802 48.8117C72.5456 49.9994 70.8711 50.6667 69.1251 50.6667H65.6293C64.8275 56.7891 61.7305 62.4194 56.9195 66.5008C52.1085 70.5822 45.9145 72.8339 39.5001 72.8334V66.5C44.7381 66.5 49.7616 64.4983 53.4654 60.9351C57.1693 57.3719 59.2501 52.5391 59.2501 47.5V28.5C59.2501 23.4609 57.1693 18.6282 53.4654 15.065C49.7616 11.5018 44.7381 9.50003 39.5001 9.50003C34.2621 9.50003 29.2386 11.5018 25.5347 15.065C21.8309 18.6282 19.7501 23.4609 19.7501 28.5V50.6667H9.87508C8.12907 50.6667 6.45458 49.9994 5.21996 48.8117C3.98535 47.624 3.29175 46.0131 3.29175 44.3334V31.6667C3.29175 29.987 3.98535 28.3761 5.21996 27.1884C6.45458 26.0006 8.12907 25.3334 9.87508 25.3334H13.3708C14.1741 19.2119 17.2717 13.5827 22.0825 9.50217C26.8932 5.42161 33.0864 3.1701 39.5001 3.1701C45.9137 3.1701 52.1069 5.42161 56.9177 9.50217C61.7284 13.5827 64.8261 19.2119 65.6293 25.3334H69.1251ZM25.5434 49.9859L29.0326 44.6152C32.1696 46.5061 35.7981 47.5061 39.5001 47.5C43.202 47.5061 46.8305 46.5061 49.9676 44.6152L53.4567 49.9859C49.2741 52.5075 44.4361 53.8412 39.5001 53.8334C34.564 53.8412 29.726 52.5075 25.5434 49.9859Z" fill="#377E4C"/>
</svg>
