<svg width="22" height="21" viewBox="0 0 22 21" fill="none" xmlns="http://www.w3.org/2000/svg">
<path d="M13.0204 18.7681C13.0204 18.8097 13.0157 18.9139 13.0064 19.0806C12.997 19.2472 12.9947 19.3853 12.9994 19.4946C13.004 19.604 13.0181 19.7264 13.0415 19.8618C13.0648 19.9972 13.1116 20.0988 13.1818 20.1665C13.2519 20.2342 13.3478 20.2681 13.4694 20.2681H17.9592C19.0723 20.2681 20.024 19.828 20.8144 18.9478C21.6048 18.0675 22 17.0076 22 15.7681V4.76807C22 3.52848 21.6048 2.46859 20.8144 1.58838C20.024 0.708171 19.0723 0.268066 17.9592 0.268066H13.4694C13.3478 0.268066 13.2426 0.317546 13.1537 0.416504C13.0648 0.515462 13.0204 0.63265 13.0204 0.768066C13.0204 0.809733 13.0157 0.9139 13.0064 1.08057C12.997 1.24723 12.9947 1.38525 12.9994 1.49463C13.004 1.604 13.0181 1.7264 13.0415 1.86182C13.0648 1.99723 13.1116 2.0988 13.1818 2.1665C13.2519 2.23421 13.3478 2.26807 13.4694 2.26807H17.9592C18.5765 2.26807 19.105 2.51286 19.5446 3.00244C19.9843 3.49202 20.2041 4.08057 20.2041 4.76807V15.7681C20.2041 16.4556 19.9843 17.0441 19.5446 17.5337C19.105 18.0233 18.5765 18.2681 17.9592 18.2681H13.5816L13.4203 18.2837L13.2589 18.3306L13.1467 18.4165L13.0485 18.5571L13.0204 18.7681ZM2.68221e-07 10.2681C2.68221e-07 10.5389 0.0888608 10.7733 0.266582 10.9712L7.89923 19.4712C8.07696 19.6691 8.28742 19.7681 8.53061 19.7681C8.77381 19.7681 8.98427 19.6691 9.16199 19.4712C9.33971 19.2733 9.42857 19.0389 9.42857 18.7681V14.2681H15.7143C15.9575 14.2681 16.1679 14.1691 16.3457 13.9712C16.5234 13.7733 16.6122 13.5389 16.6122 13.2681V7.26807C16.6122 6.99723 16.5234 6.76286 16.3457 6.56494C16.1679 6.36702 15.9575 6.26807 15.7143 6.26807H9.42857V1.76807C9.42857 1.49723 9.33971 1.26286 9.16199 1.06494C8.98427 0.867025 8.77381 0.768066 8.53061 0.768066C8.28742 0.768066 8.07696 0.867025 7.89923 1.06494L0.266582 9.56494C0.0888608 9.76286 2.68221e-07 9.99723 2.68221e-07 10.2681Z" fill="white"/>
</svg>
