<svg width="157" height="149" viewBox="0 0 157 149" fill="none" xmlns="http://www.w3.org/2000/svg">
<path d="M78.5 0C35.1459 0 0 33.355 0 74.5C0 115.647 35.1459 149 78.5 149C121.857 149 157 115.647 157 74.5C157 33.355 121.857 0 78.5 0ZM78.5 139.834C40.6262 139.834 9.8125 110.444 9.8125 74.4997C9.8125 38.5558 40.6262 9.31221 78.5 9.31221C116.374 9.31221 147.188 38.5559 147.188 74.4997C147.188 110.443 116.374 139.834 78.5 139.834ZM109.829 47.24L63.7713 91.2252L43.0301 71.541C41.1142 69.7227 38.0086 69.7227 36.0902 71.541C34.1743 73.3592 34.1743 76.3066 36.0902 78.1249L60.3737 101.173C62.2896 102.989 65.3953 102.989 67.3136 101.173C67.5344 100.964 67.7234 100.735 67.8951 100.498L116.771 53.8261C118.685 52.0078 118.685 49.0604 116.771 47.24C114.853 45.4217 111.747 45.4217 109.829 47.24Z" fill="#377E4C"/>
</svg>
