<svg width="26" height="26" viewBox="0 0 26 26" fill="none" xmlns="http://www.w3.org/2000/svg">
<g clip-path="url(#clip0_68_552)">
<path d="M26 6.77083C26 6.1962 25.7717 5.6451 25.3654 5.23877C24.9591 4.83244 24.408 4.60417 23.8333 4.60417H17.3333C17.1897 4.60417 17.0519 4.66124 16.9503 4.76282C16.8487 4.8644 16.7917 5.00217 16.7917 5.14583V6.77083C16.7917 6.91449 16.7346 7.05227 16.633 7.15385C16.5314 7.25543 16.3937 7.3125 16.25 7.3125C16.1063 7.3125 15.9686 7.25543 15.867 7.15385C15.7654 7.05227 15.7083 6.91449 15.7083 6.77083V4.0625C15.7083 3.20055 15.3659 2.3739 14.7564 1.7644C14.1469 1.15491 13.3203 0.8125 12.4583 0.8125C11.5964 0.8125 10.7697 1.15491 10.1602 1.7644C9.55074 2.3739 9.20833 3.20055 9.20833 4.0625V6.77083C9.20833 6.91449 9.15127 7.05227 9.04968 7.15385C8.9481 7.25543 8.81033 7.3125 8.66667 7.3125C8.52301 7.3125 8.38523 7.25543 8.28365 7.15385C8.18207 7.05227 8.125 6.91449 8.125 6.77083V5.14583C8.125 5.00217 8.06793 4.8644 7.96635 4.76282C7.86477 4.66124 7.72699 4.60417 7.58333 4.60417H2.16667C1.59203 4.60417 1.04093 4.83244 0.634602 5.23877C0.228273 5.6451 0 6.1962 0 6.77083L0 23.0208C0 23.5955 0.228273 24.1466 0.634602 24.5529C1.04093 24.9592 1.59203 25.1875 2.16667 25.1875H23.8333C24.408 25.1875 24.9591 24.9592 25.3654 24.5529C25.7717 24.1466 26 23.5955 26 23.0208V6.77083ZM11.375 3.79167C11.375 3.5774 11.4385 3.36795 11.5576 3.1898C11.6766 3.01165 11.8458 2.87279 12.0438 2.7908C12.2417 2.7088 12.4595 2.68735 12.6697 2.72915C12.8798 2.77095 13.0729 2.87413 13.2244 3.02563C13.3759 3.17714 13.4791 3.37017 13.5209 3.58032C13.5627 3.79047 13.5412 4.00829 13.4592 4.20624C13.3772 4.40419 13.2384 4.57339 13.0602 4.69243C12.882 4.81146 12.6726 4.875 12.4583 4.875C12.171 4.875 11.8955 4.76086 11.6923 4.5577C11.4891 4.35453 11.375 4.07898 11.375 3.79167ZM2.70833 23.0208C2.56467 23.0208 2.4269 22.9638 2.32532 22.8622C2.22374 22.7606 2.16667 22.6228 2.16667 22.4792V11.1042C2.16667 10.9605 2.22374 10.8227 2.32532 10.7212C2.4269 10.6196 2.56467 10.5625 2.70833 10.5625H23.2917C23.4353 10.5625 23.5731 10.6196 23.6747 10.7212C23.7763 10.8227 23.8333 10.9605 23.8333 11.1042V22.4792C23.8333 22.6228 23.7763 22.7606 23.6747 22.8622C23.5731 22.9638 23.4353 23.0208 23.2917 23.0208H2.70833Z" fill="white"/>
<path d="M20.8541 14.625H15.7083C15.4928 14.625 15.2861 14.7106 15.1337 14.863C14.9814 15.0153 14.8958 15.222 14.8958 15.4375C14.8958 15.653 14.9814 15.8597 15.1337 16.012C15.2861 16.1644 15.4928 16.25 15.7083 16.25H20.8541C21.0696 16.25 21.2762 16.1644 21.4286 16.012C21.581 15.8597 21.6666 15.653 21.6666 15.4375C21.6666 15.222 21.581 15.0153 21.4286 14.863C21.2762 14.7106 21.0696 14.625 20.8541 14.625Z" fill="white"/>
<path d="M19.4999 17.875H15.7083C15.4928 17.875 15.2861 17.9606 15.1337 18.113C14.9814 18.2653 14.8958 18.472 14.8958 18.6875C14.8958 18.903 14.9814 19.1097 15.1337 19.262C15.2861 19.4144 15.4928 19.5 15.7083 19.5H19.4999C19.7154 19.5 19.9221 19.4144 20.0744 19.262C20.2268 19.1097 20.3124 18.903 20.3124 18.6875C20.3124 18.472 20.2268 18.2653 20.0744 18.113C19.9221 17.9606 19.7154 17.875 19.4999 17.875Z" fill="white"/>
<path d="M6.5 14.8959C6.5 15.4705 6.72827 16.0216 7.1346 16.4279C7.54093 16.8342 8.09203 17.0625 8.66667 17.0625C9.2413 17.0625 9.7924 16.8342 10.1987 16.4279C10.6051 16.0216 10.8333 15.4705 10.8333 14.8959C10.8333 14.3212 10.6051 13.7701 10.1987 13.3638C9.7924 12.9575 9.2413 12.7292 8.66667 12.7292C8.09203 12.7292 7.54093 12.9575 7.1346 13.3638C6.72827 13.7701 6.5 14.3212 6.5 14.8959Z" fill="white"/>
<path d="M8.66674 18.1458C7.88801 18.1599 7.13131 18.4068 6.49415 18.8547C5.85699 19.3027 5.36855 19.9311 5.09174 20.6591C5.05996 20.7415 5.04879 20.8304 5.0592 20.9181C5.06962 21.0057 5.1013 21.0895 5.1515 21.1621C5.20169 21.2348 5.26888 21.294 5.34721 21.3347C5.42553 21.3755 5.51263 21.3964 5.60091 21.3958H11.7217C11.81 21.3964 11.8971 21.3755 11.9754 21.3347C12.0538 21.294 12.121 21.2348 12.1712 21.1621C12.2214 21.0895 12.253 21.0057 12.2635 20.9181C12.2739 20.8304 12.2627 20.7415 12.2309 20.6591C11.9573 19.9312 11.4711 19.3022 10.8356 18.854C10.2 18.4058 9.44434 18.1591 8.66674 18.1458Z" fill="white"/>
</g>
<defs>
<clipPath id="clip0_68_552">
<rect width="26" height="26" fill="white"/>
</clipPath>
</defs>
</svg>
